<svg width="389" height="261" viewBox="0 0 389 261" fill="none" xmlns="http://www.w3.org/2000/svg">
<path d="M12.1394 208.466C13.0575 208.261 14.5066 208.125 15.9785 208.125C18.0802 208.125 19.4231 208.481 20.4398 209.301C21.2896 209.93 21.7903 210.894 21.7903 212.176C21.7903 213.739 20.7509 215.12 19.0362 215.75V215.795C20.5764 216.19 22.3973 217.465 22.3973 219.877C22.3973 221.273 21.8434 222.336 21.024 223.132C19.8935 224.172 18.0498 224.657 15.4019 224.657C13.9527 224.657 12.8374 224.559 12.1394 224.46V208.466ZM14.2411 215.12H16.1455C18.3685 215.12 19.6659 213.959 19.6659 212.396C19.6659 210.484 18.2168 209.741 16.0923 209.741C15.1212 209.741 14.5749 209.817 14.2411 209.885V215.12ZM14.2411 222.92C14.6508 222.988 15.2502 223.018 15.9937 223.018C18.1636 223.018 20.1667 222.222 20.1667 219.855C20.1667 217.639 18.2623 216.721 15.9709 216.721H14.2335V222.92H14.2411Z" fill="#056333"/>
<path d="M27.8526 219.399L26.1606 224.521H23.9983L29.5218 208.254H32.0559L37.6097 224.521H35.3639L33.6265 219.399H27.8526ZM33.1864 217.753L31.5931 213.064C31.2289 212.009 30.9861 211.038 30.7433 210.097H30.7054C30.455 211.061 30.1895 212.047 29.8784 213.041L28.2851 217.753H33.1864Z" fill="#056333"/>
<path d="M39.9844 224.513V208.246H42.2757L47.4805 216.478C48.6869 218.383 49.6277 220.105 50.4016 221.759L50.4471 221.736C50.2575 219.566 50.2119 217.586 50.2119 215.052V208.246H52.1846V224.513H50.0602L44.8933 216.258C43.7628 214.445 42.6778 212.586 41.8584 210.833L41.775 210.856C41.8964 212.905 41.9495 214.862 41.9495 217.563V224.521H39.9844" fill="#056333"/>
<path d="M55.8569 208.246H57.9586V216.091H58.0269C58.4669 215.462 58.8994 214.885 59.3091 214.354L64.2787 208.246H66.8887L61.0011 215.151L67.3516 224.513H64.8629L59.5064 216.516L57.9662 218.307V224.513H55.8645V208.246" fill="#056333"/>
<path d="M87.9507 216.213C87.9507 221.812 84.5593 224.779 80.4091 224.779C76.1071 224.779 73.0874 221.448 73.0874 216.524C73.0874 211.364 76.3044 207.981 80.6443 207.981C85.0828 207.981 87.9507 211.38 87.9507 216.213ZM75.3408 216.471C75.3408 219.946 77.23 223.064 80.5229 223.064C83.8536 223.064 85.7353 219.999 85.7353 216.304C85.7353 213.072 84.0433 209.695 80.5456 209.695C77.0707 209.695 75.3408 212.905 75.3408 216.471Z" fill="#056333"/>
<path d="M90.6821 208.246H99.4378V210.006H92.7762V215.416H98.937V217.146H92.7762V224.513H90.6821V208.246Z" fill="#056333"/>
<path d="M107.549 208.466C108.611 208.246 110.128 208.125 111.577 208.125C113.823 208.125 115.272 208.534 116.281 209.452C117.101 210.173 117.564 211.281 117.564 212.548C117.564 214.695 116.213 216.114 114.498 216.698V216.767C115.75 217.207 116.501 218.36 116.888 220.052C117.42 222.32 117.806 223.891 118.14 224.521H115.97C115.705 224.035 115.348 222.662 114.885 220.636C114.407 218.39 113.535 217.548 111.631 217.472H109.65V224.528H107.549V208.466ZM109.65 215.871H111.797C114.036 215.871 115.462 214.635 115.462 212.783C115.462 210.682 113.945 209.764 111.722 209.741C110.712 209.741 109.984 209.839 109.65 209.93V215.871Z" fill="#056333"/>
<path d="M123.565 224.513L119.445 208.246H121.661L123.588 216.478C124.074 218.504 124.498 220.537 124.802 222.1H124.847C125.105 220.484 125.614 218.55 126.175 216.448L128.345 208.246H130.538L132.51 216.501C132.973 218.428 133.406 220.363 133.641 222.07H133.687C134.036 220.287 134.483 218.474 134.999 216.448L137.146 208.246H139.286L134.673 224.513H132.48L130.432 216.038C129.923 213.967 129.589 212.374 129.369 210.727H129.324C129.036 212.343 128.664 213.937 128.064 216.038L125.743 224.513H123.565Z" fill="#056333"/>
<path d="M142.586 219.399L140.894 224.521H138.724L144.24 208.254H146.774L152.328 224.521H150.09L148.353 219.399H142.586ZM147.92 217.753L146.327 213.064C145.963 212.009 145.72 211.038 145.477 210.097H145.431C145.189 211.061 144.923 212.047 144.62 213.041L143.019 217.753H147.92Z" fill="#056333"/>
<path d="M154.718 224.513V208.246H157.017L162.23 216.478C163.436 218.383 164.377 220.105 165.151 221.759L165.196 221.736C165.007 219.566 164.961 217.586 164.961 215.052V208.246H166.941V224.513H164.817L159.65 216.258C158.519 214.445 157.442 212.586 156.607 210.833L156.539 210.856C156.653 212.905 156.706 214.862 156.706 217.563V224.521H154.718" fill="#056333"/>
<path d="M170.598 208.466C171.88 208.261 173.405 208.125 175.067 208.125C178.079 208.125 180.234 208.823 181.653 210.151C183.102 211.478 183.944 213.36 183.944 215.993C183.944 218.648 183.125 220.818 181.607 222.313C180.09 223.838 177.578 224.657 174.415 224.657C172.92 224.657 171.66 224.589 170.598 224.46V208.466ZM172.692 222.844C173.223 222.943 173.997 222.965 174.824 222.965C179.316 222.965 181.744 220.454 181.744 216.069C181.767 212.229 179.597 209.786 175.15 209.786C174.065 209.786 173.246 209.885 172.692 210.006V222.844Z" fill="#056333"/>
<path d="M188.959 219.399L187.267 224.521H185.097L190.621 208.254H193.155L198.701 224.521H196.455L194.718 219.399H188.959ZM194.293 217.753L192.7 213.064C192.336 212.009 192.093 211.038 191.865 210.097H191.812C191.569 211.061 191.304 212.047 191 213.041L189.407 217.753H194.293Z" fill="#056333"/>
<path d="M48.262 182.875C49.5442 182.677 51.0616 182.533 52.7232 182.533C55.7429 182.533 57.8825 183.239 59.3089 184.559C60.7581 185.887 61.6003 187.768 61.6003 190.401C61.6003 193.057 60.7809 195.226 59.2634 196.721C57.746 198.246 55.227 199.066 52.0707 199.066C50.5836 199.066 49.3242 198.997 48.262 198.876V182.875ZM50.356 197.252C50.8871 197.351 51.661 197.374 52.4804 197.374C56.9721 197.374 59.4076 194.862 59.4076 190.477C59.4303 186.638 57.2604 184.195 52.8219 184.195C51.7369 184.195 50.9175 184.301 50.3636 184.415V197.252H50.356Z" fill="#056333"/>
<path d="M72.7536 191.296H66.4259V197.161H73.4744V198.921H64.3242V182.654H73.1178V184.415H66.4259V189.559H72.7536V191.296Z" fill="#056333"/>
<path d="M79.992 198.921L74.6809 182.654H76.9495L79.4836 190.667C80.1816 192.867 80.7886 194.84 81.2211 196.752H81.2666C81.7294 194.87 82.3971 192.821 83.1255 190.689L85.872 182.654H88.1179L82.2985 198.921H79.992Z" fill="#056333"/>
<path d="M98.3073 191.296H91.9872V197.161H99.0357V198.921H89.8855V182.654H98.6639V184.415H91.9872V189.559H98.3073V191.296Z" fill="#056333"/>
<path d="M101.752 182.654H103.861V197.161H110.811V198.921H101.752V182.654Z" fill="#056333"/>
<path d="M126.107 190.621C126.107 196.213 122.708 199.187 118.557 199.187C114.263 199.187 111.243 195.856 111.243 190.932C111.243 185.765 114.453 182.389 118.793 182.389C123.239 182.389 126.107 185.796 126.107 190.621ZM113.482 190.887C113.482 194.362 115.363 197.472 118.671 197.472C122.002 197.472 123.884 194.415 123.884 190.72C123.884 187.488 122.192 184.104 118.686 184.104C115.219 184.104 113.482 187.313 113.482 190.887Z" fill="#056333"/>
<path d="M128.831 182.844C129.84 182.677 131.168 182.533 132.86 182.533C134.931 182.533 136.456 183.019 137.42 183.884C138.315 184.657 138.846 185.841 138.846 187.29C138.846 188.762 138.413 189.923 137.586 190.765C136.479 191.949 134.673 192.548 132.617 192.548C131.995 192.548 131.418 192.525 130.932 192.404V198.921H128.831V182.844ZM130.932 190.689C131.395 190.811 131.964 190.856 132.67 190.856C135.204 190.856 136.744 189.627 136.744 187.381C136.744 185.234 135.227 184.195 132.905 184.195C131.987 184.195 131.281 184.271 130.925 184.369V190.689H130.932Z" fill="#056333"/>
<path d="M155.075 191.782C154.961 189.506 154.817 186.79 154.84 184.756H154.771C154.218 186.668 153.542 188.717 152.723 190.932L149.847 198.823H148.262L145.629 191.076C144.855 188.785 144.21 186.691 143.747 184.756H143.694C143.649 186.782 143.535 189.506 143.375 191.949L142.943 198.921H140.94L142.07 182.654H144.749L147.526 190.522C148.201 192.525 148.755 194.316 149.157 196H149.233C149.642 194.362 150.227 192.571 150.947 190.522L153.838 182.654H156.524L157.541 198.921H155.485L155.075 191.782Z" fill="#056333"/>
<path d="M169.195 191.296H162.875V197.161H169.923V198.921H160.773V182.654H169.567V184.415H162.875V189.559H169.195V191.296Z" fill="#056333"/>
<path d="M172.647 198.921V182.654H174.938L180.15 190.887C181.357 192.791 182.298 194.513 183.072 196.175L183.117 196.152C182.927 193.982 182.882 192.002 182.882 189.468V182.662H184.855V198.929H182.73L177.571 190.674C176.433 188.868 175.348 187.01 174.528 185.249L174.452 185.272C174.574 187.321 174.619 189.278 174.619 191.979V198.929H172.647" fill="#056333"/>
<path d="M191.615 184.445H186.668V182.654H198.709V184.445H193.739V198.921H191.615V184.445Z" fill="#056333"/>
<path d="M113.755 233.633L114.855 237.707C115.075 238.603 115.295 239.43 115.447 240.257H115.5C115.69 239.445 115.955 238.587 116.228 237.722L117.571 233.633H118.823L120.09 237.639C120.394 238.595 120.629 239.445 120.819 240.257H120.872C121.008 239.445 121.228 238.603 121.494 237.654L122.662 233.633H124.134L121.494 241.645H120.136L118.884 237.821C118.596 236.926 118.36 236.129 118.156 235.188H118.125C117.92 236.152 117.67 236.979 117.382 237.836L116.062 241.645H114.703L112.23 233.633H113.755Z" fill="#8DC63F"/>
<path d="M126.433 233.633L127.533 237.707C127.753 238.603 127.973 239.43 128.125 240.257H128.178C128.368 239.445 128.634 238.587 128.907 237.722L130.242 233.633H131.494L132.761 237.639C133.064 238.595 133.3 239.445 133.489 240.257H133.542C133.679 239.445 133.899 238.603 134.172 237.654L135.341 233.633H136.813L134.172 241.645H132.814L131.562 237.821C131.274 236.926 131.039 236.129 130.834 235.188H130.803C130.599 236.152 130.348 236.979 130.06 237.836L128.74 241.645H127.382L124.908 233.633H126.433Z" fill="#8DC63F"/>
<path d="M139.111 233.633L140.212 237.707C140.432 238.603 140.652 239.43 140.803 240.257H140.857C141.046 239.445 141.312 238.587 141.585 237.722L142.92 233.633H144.172L145.439 237.639C145.743 238.595 145.978 239.445 146.168 240.257H146.221C146.357 239.445 146.577 238.603 146.85 237.654L148.019 233.633H149.491L146.85 241.645H145.492L144.24 237.821C143.952 236.926 143.717 236.129 143.512 235.188H143.482C143.277 236.152 143.026 236.979 142.738 237.836L141.418 241.645H140.06L137.586 233.633H139.111Z" fill="#8DC63F"/>
<path d="M149.976 240.788C149.976 240.188 150.401 239.748 150.993 239.748C151.585 239.748 151.995 240.181 151.995 240.788C151.995 241.387 151.585 241.827 150.963 241.827C150.386 241.827 149.976 241.379 149.976 240.788Z" fill="#8DC63F"/>
<path d="M153.846 229.892H155.318V234.923H155.348C155.872 234.027 156.82 233.466 158.14 233.466C160.189 233.466 161.615 235.12 161.615 237.54C161.615 240.408 159.749 241.827 157.92 241.827C156.737 241.827 155.781 241.379 155.158 240.34H155.128L155.045 241.645H153.77C153.8 241.099 153.838 240.287 153.838 239.574V229.892H153.846ZM155.318 238.436C155.318 238.618 155.333 238.8 155.386 238.967C155.659 239.976 156.539 240.674 157.624 240.674C159.202 240.674 160.113 239.43 160.113 237.593C160.113 235.985 159.263 234.612 157.655 234.612C156.653 234.612 155.705 235.31 155.401 236.402C155.348 236.584 155.318 236.782 155.318 237.017V238.436Z" fill="#8DC63F"/>
<path d="M163.489 236.137C163.489 235.196 163.474 234.384 163.421 233.64H164.726L164.794 235.226H164.847C165.219 234.149 166.137 233.474 167.139 233.474C167.29 233.474 167.412 233.489 167.548 233.504V234.877C167.397 234.847 167.245 234.847 167.04 234.847C165.985 234.847 165.242 235.606 165.037 236.698C165.007 236.895 164.984 237.146 164.984 237.373V241.645H163.489V236.137Z" fill="#8DC63F"/>
<path d="M175.925 229.892V239.574C175.925 240.287 175.963 241.099 175.993 241.645H174.673L174.604 240.257H174.551C174.111 241.152 173.125 241.827 171.79 241.827C169.809 241.827 168.269 240.188 168.269 237.753C168.254 235.09 169.961 233.466 171.949 233.466C173.224 233.466 174.051 234.043 174.422 234.672H174.453V229.892H175.925ZM174.453 236.895C174.453 236.713 174.438 236.463 174.384 236.281C174.164 235.37 173.353 234.612 172.23 234.612C170.689 234.612 169.771 235.939 169.771 237.692C169.771 239.316 170.606 240.659 172.192 240.659C173.193 240.659 174.104 239.999 174.377 238.921C174.43 238.724 174.445 238.527 174.445 238.292V236.895H174.453Z" fill="#8DC63F"/>
<path d="M177.897 240.788C177.897 240.188 178.322 239.748 178.914 239.748C179.506 239.748 179.916 240.181 179.916 240.788C179.916 241.387 179.506 241.827 178.884 241.827C178.3 241.827 177.897 241.379 177.897 240.788Z" fill="#8DC63F"/>
<path d="M181.759 236.137C181.759 235.196 181.744 234.384 181.691 233.64H182.996L183.064 235.226H183.117C183.489 234.149 184.407 233.474 185.409 233.474C185.56 233.474 185.682 233.489 185.818 233.504V234.877C185.667 234.847 185.515 234.847 185.31 234.847C184.255 234.847 183.512 235.606 183.307 236.698C183.277 236.895 183.254 237.146 183.254 237.373V241.645H181.759V236.137Z" fill="#8DC63F"/>
<path d="M188.322 233.633L189.422 237.707C189.642 238.603 189.862 239.43 190.014 240.257H190.067C190.257 239.445 190.522 238.587 190.796 237.722L192.131 233.633H193.383L194.657 237.639C194.961 238.595 195.196 239.445 195.386 240.257H195.439C195.575 239.445 195.796 238.603 196.069 237.654L197.237 233.633H198.709L196.069 241.645H194.711L193.459 237.821C193.17 236.926 192.935 236.129 192.73 235.188H192.7C192.495 236.152 192.245 236.979 191.956 237.836L190.636 241.645H189.278L186.805 233.633H188.322Z" fill="#8DC63F"/>
<path d="M227.715 227.76L230.947 239.953H230.985L234.46 227.76H236.159L239.649 239.953H239.695L242.942 227.76H244.3L240.37 241.683H238.928L235.317 229.225H235.279L231.683 241.683H230.211L226.258 227.76H227.715Z" fill="#056333"/>
<path d="M246.129 238.36C246.258 238.838 246.455 239.263 246.736 239.634C247.017 240.014 247.366 240.325 247.79 240.568C248.215 240.818 248.731 240.939 249.331 240.939C250.249 240.939 250.969 240.704 251.485 240.234C252.009 239.763 252.366 239.141 252.563 238.36H253.822C253.557 239.505 253.064 240.386 252.358 241.015C251.645 241.637 250.636 241.949 249.338 241.949C248.526 241.949 247.821 241.812 247.229 241.531C246.637 241.25 246.152 240.871 245.78 240.378C245.408 239.892 245.127 239.323 244.953 238.678C244.771 238.034 244.687 237.358 244.687 236.637C244.687 235.977 244.778 235.325 244.953 234.688C245.135 234.05 245.408 233.481 245.78 232.98C246.152 232.48 246.637 232.078 247.229 231.774C247.821 231.471 248.526 231.319 249.338 231.319C250.165 231.319 250.871 231.478 251.455 231.804C252.039 232.131 252.517 232.556 252.881 233.079C253.246 233.61 253.511 234.21 253.671 234.892C253.83 235.575 253.898 236.266 253.868 236.971H245.947C245.939 237.427 246 237.889 246.129 238.36ZM252.358 234.612C252.206 234.179 251.986 233.8 251.713 233.474C251.432 233.14 251.091 232.874 250.696 232.677C250.294 232.472 249.847 232.373 249.338 232.373C248.822 232.373 248.359 232.472 247.957 232.677C247.555 232.882 247.221 233.147 246.941 233.474C246.66 233.807 246.44 234.187 246.273 234.627C246.106 235.059 246 235.507 245.947 235.962H252.616C252.593 235.484 252.51 235.037 252.358 234.612Z" fill="#056333"/>
<path d="M262.039 238.36C262.168 238.838 262.366 239.263 262.646 239.634C262.927 240.014 263.276 240.325 263.701 240.568C264.126 240.818 264.642 240.939 265.241 240.939C266.159 240.939 266.88 240.704 267.396 240.234C267.912 239.763 268.276 239.141 268.473 238.36H269.733C269.467 239.505 268.974 240.386 268.268 241.015C267.555 241.637 266.546 241.949 265.249 241.949C264.437 241.949 263.731 241.812 263.139 241.531C262.548 241.25 262.062 240.871 261.69 240.378C261.318 239.892 261.038 239.323 260.863 238.678C260.681 238.034 260.59 237.358 260.59 236.637C260.59 235.977 260.681 235.325 260.863 234.688C261.045 234.05 261.318 233.481 261.69 232.98C262.062 232.48 262.548 232.078 263.139 231.774C263.731 231.471 264.437 231.319 265.249 231.319C266.076 231.319 266.774 231.478 267.365 231.804C267.95 232.131 268.428 232.556 268.792 233.079C269.156 233.61 269.422 234.21 269.581 234.892C269.74 235.575 269.809 236.266 269.778 236.971H261.857C261.85 237.427 261.91 237.889 262.039 238.36ZM268.268 234.612C268.117 234.179 267.897 233.8 267.623 233.474C267.343 233.14 267.001 232.874 266.607 232.677C266.205 232.472 265.757 232.373 265.249 232.373C264.733 232.373 264.27 232.472 263.868 232.677C263.466 232.882 263.132 233.147 262.851 233.474C262.57 233.807 262.35 234.187 262.183 234.627C262.016 235.059 261.91 235.507 261.857 235.962H268.526C268.504 235.484 268.42 235.037 268.268 234.612Z" fill="#056333"/>
<path d="M272.623 231.622V233.322H272.684C273.018 232.7 273.45 232.207 273.989 231.858C274.528 231.509 275.218 231.334 276.053 231.334C276.728 231.334 277.35 231.493 277.896 231.82C278.45 232.146 278.814 232.639 279.004 233.299C279.308 232.639 279.763 232.138 280.362 231.82C280.962 231.493 281.599 231.334 282.282 231.334C284.558 231.334 285.696 232.51 285.696 234.862V241.683H284.437V234.915C284.437 234.081 284.254 233.451 283.898 233.018C283.541 232.586 282.904 232.366 282.001 232.366C281.455 232.366 281.007 232.465 280.643 232.669C280.286 232.874 279.998 233.14 279.786 233.481C279.573 233.823 279.421 234.21 279.338 234.642C279.254 235.075 279.209 235.53 279.209 235.993V241.683H277.949V234.862C277.949 234.528 277.912 234.202 277.836 233.899C277.76 233.595 277.646 233.329 277.479 233.102C277.312 232.874 277.092 232.7 276.811 232.563C276.531 232.434 276.189 232.366 275.795 232.366C275.264 232.366 274.801 232.457 274.406 232.647C274.012 232.836 273.693 233.094 273.45 233.428C273.207 233.762 273.018 234.149 272.904 234.597C272.783 235.044 272.722 235.537 272.722 236.068V241.683H271.462V231.622H272.623Z" fill="#056333"/>
<path d="M289.254 231.622V233.534H289.292C289.588 232.836 290.059 232.29 290.719 231.903C291.379 231.516 292.122 231.326 292.965 231.326C293.746 231.326 294.429 231.471 295.013 231.751C295.59 232.04 296.075 232.427 296.462 232.912C296.849 233.398 297.137 233.967 297.32 234.612C297.509 235.257 297.6 235.932 297.6 236.645C297.6 237.358 297.509 238.041 297.32 238.686C297.13 239.331 296.849 239.892 296.462 240.386C296.075 240.871 295.597 241.258 295.013 241.539C294.436 241.82 293.754 241.956 292.965 241.956C292.593 241.956 292.221 241.911 291.849 241.82C291.477 241.729 291.128 241.592 290.81 241.41C290.491 241.228 290.21 241 289.96 240.727C289.717 240.454 289.528 240.135 289.391 239.771H289.353V245.386H288.094V231.622H289.254ZM296.151 235.105C296.022 234.589 295.825 234.134 295.552 233.732C295.279 233.329 294.93 233.003 294.505 232.745C294.08 232.495 293.564 232.366 292.965 232.366C292.274 232.366 291.69 232.48 291.227 232.715C290.764 232.95 290.392 233.261 290.112 233.648C289.831 234.043 289.634 234.49 289.52 235.014C289.406 235.53 289.353 236.076 289.353 236.653C289.353 237.176 289.414 237.692 289.543 238.2C289.672 238.716 289.877 239.172 290.165 239.574C290.453 239.976 290.825 240.302 291.28 240.56C291.743 240.81 292.304 240.939 292.965 240.939C293.564 240.939 294.072 240.81 294.505 240.56C294.93 240.31 295.279 239.976 295.552 239.574C295.825 239.172 296.022 238.716 296.151 238.2C296.28 237.685 296.341 237.169 296.341 236.653C296.341 236.137 296.28 235.621 296.151 235.105Z" fill="#056333"/>
<path d="M305.992 231.759C306.599 232.047 307.107 232.427 307.517 232.912C307.927 233.39 308.245 233.952 308.458 234.597C308.67 235.241 308.776 235.924 308.776 236.653C308.776 237.381 308.67 238.064 308.458 238.709C308.245 239.354 307.934 239.915 307.517 240.393C307.107 240.871 306.599 241.258 305.992 241.531C305.385 241.812 304.694 241.949 303.905 241.949C303.116 241.949 302.426 241.812 301.819 241.531C301.212 241.251 300.704 240.871 300.294 240.393C299.884 239.915 299.566 239.346 299.353 238.709C299.141 238.064 299.034 237.381 299.034 236.653C299.034 235.924 299.141 235.241 299.353 234.597C299.566 233.952 299.884 233.39 300.294 232.912C300.704 232.434 301.212 232.047 301.819 231.759C302.426 231.471 303.116 231.334 303.905 231.334C304.687 231.334 305.385 231.478 305.992 231.759ZM302.327 232.738C301.872 232.988 301.5 233.307 301.197 233.709C300.901 234.111 300.673 234.574 300.522 235.082C300.37 235.598 300.294 236.122 300.294 236.653C300.294 237.184 300.37 237.707 300.522 238.223C300.673 238.739 300.901 239.194 301.197 239.597C301.493 239.999 301.872 240.325 302.327 240.568C302.783 240.818 303.306 240.939 303.905 240.939C304.505 240.939 305.028 240.818 305.484 240.568C305.939 240.325 306.311 239.999 306.614 239.597C306.91 239.194 307.138 238.732 307.297 238.223C307.449 237.707 307.525 237.184 307.525 236.653C307.525 236.122 307.449 235.598 307.297 235.082C307.145 234.566 306.918 234.111 306.614 233.709C306.311 233.307 305.939 232.98 305.484 232.738C305.028 232.487 304.505 232.366 303.905 232.366C303.306 232.366 302.783 232.487 302.327 232.738Z" fill="#056333"/>
<path d="M310.954 231.622L313.587 240.241H313.624L316.143 231.622H317.555L320.074 240.241H320.112L322.752 231.622H324.087L320.772 241.683H319.398L316.857 233.223H316.819L314.307 241.683H312.926L309.611 231.622H310.954Z" fill="#056333"/>
<path d="M326.371 238.36C326.5 238.838 326.705 239.263 326.978 239.634C327.259 240.014 327.608 240.325 328.04 240.568C328.465 240.818 328.973 240.939 329.58 240.939C330.498 240.939 331.219 240.704 331.735 240.234C332.259 239.763 332.615 239.141 332.813 238.36H334.072C333.806 239.505 333.313 240.386 332.608 241.015C331.895 241.637 330.885 241.949 329.58 241.949C328.769 241.949 328.063 241.812 327.471 241.531C326.879 241.25 326.394 240.871 326.022 240.378C325.65 239.892 325.377 239.323 325.195 238.678C325.013 238.034 324.922 237.358 324.922 236.637C324.922 235.977 325.013 235.325 325.195 234.688C325.37 234.05 325.65 233.481 326.022 232.98C326.394 232.48 326.879 232.078 327.471 231.774C328.063 231.471 328.761 231.319 329.58 231.319C330.407 231.319 331.113 231.478 331.697 231.804C332.281 232.131 332.759 232.556 333.124 233.079C333.488 233.61 333.753 234.21 333.913 234.892C334.072 235.575 334.14 236.266 334.11 236.971H326.181C326.181 237.427 326.242 237.889 326.371 238.36ZM332.6 234.612C332.448 234.179 332.236 233.8 331.955 233.474C331.674 233.14 331.333 232.874 330.939 232.677C330.536 232.472 330.089 232.373 329.58 232.373C329.065 232.373 328.602 232.472 328.2 232.677C327.797 232.882 327.464 233.147 327.183 233.474C326.902 233.807 326.682 234.187 326.515 234.627C326.348 235.059 326.234 235.507 326.181 235.962H332.851C332.835 235.484 332.752 235.037 332.6 234.612Z" fill="#056333"/>
<path d="M336.955 231.622V233.982H337.001C337.319 233.163 337.813 232.533 338.488 232.093C339.163 231.653 339.96 231.448 340.893 231.486V232.715C340.324 232.692 339.8 232.76 339.338 232.942C338.875 233.117 338.473 233.367 338.131 233.694C337.79 234.02 337.524 234.407 337.342 234.854C337.153 235.302 337.061 235.795 337.061 236.326V241.691H335.802V231.63H336.955" fill="#056333"/>
<path d="M347.82 231.622L351.219 240.203L354.391 231.622H355.65L351.181 243.208C350.999 243.633 350.825 243.99 350.658 244.27C350.498 244.551 350.324 244.771 350.127 244.93C349.937 245.09 349.709 245.211 349.451 245.279C349.193 245.348 348.86 245.386 348.465 245.386C348.215 245.37 348.017 245.363 347.873 245.355C347.737 245.348 347.615 245.325 347.509 245.287V244.255C347.653 244.285 347.797 244.301 347.934 244.323C348.078 244.346 348.222 244.354 348.366 244.354C348.647 244.354 348.875 244.316 349.057 244.24C349.231 244.164 349.391 244.058 349.527 243.921C349.656 243.785 349.77 243.618 349.869 243.42C349.96 243.223 350.058 243.011 350.165 242.776L350.605 241.645L346.492 231.622H347.82Z" fill="#056333"/>
<path d="M363.313 231.759C363.92 232.047 364.429 232.427 364.846 232.912C365.256 233.39 365.567 233.952 365.787 234.597C365.999 235.241 366.105 235.924 366.105 236.653C366.105 237.381 365.999 238.064 365.787 238.709C365.574 239.354 365.263 239.915 364.846 240.393C364.429 240.871 363.928 241.258 363.313 241.531C362.706 241.812 362.016 241.949 361.227 241.949C360.445 241.949 359.755 241.812 359.14 241.531C358.533 241.251 358.025 240.871 357.615 240.393C357.198 239.915 356.887 239.346 356.674 238.709C356.462 238.064 356.356 237.381 356.356 236.653C356.356 235.924 356.47 235.241 356.674 234.597C356.887 233.952 357.198 233.39 357.615 232.912C358.025 232.434 358.533 232.047 359.14 231.759C359.747 231.471 360.438 231.334 361.227 231.334C362.016 231.334 362.714 231.478 363.313 231.759ZM359.656 232.738C359.201 232.988 358.829 233.307 358.526 233.709C358.222 234.111 358.002 234.574 357.85 235.082C357.699 235.598 357.623 236.122 357.623 236.653C357.623 237.184 357.699 237.707 357.85 238.223C358.002 238.739 358.222 239.194 358.526 239.597C358.829 239.999 359.201 240.325 359.656 240.568C360.111 240.818 360.635 240.939 361.227 240.939C361.826 240.939 362.35 240.818 362.805 240.568C363.252 240.325 363.632 239.999 363.928 239.597C364.231 239.194 364.451 238.732 364.611 238.223C364.762 237.707 364.838 237.184 364.838 236.653C364.838 236.122 364.762 235.598 364.611 235.082C364.459 234.566 364.231 234.111 363.928 233.709C363.624 233.307 363.252 232.98 362.805 232.738C362.35 232.487 361.826 232.366 361.227 232.366C360.635 232.366 360.111 232.487 359.656 232.738Z" fill="#056333"/>
<path d="M375.164 241.683V239.87H375.119C374.785 240.545 374.307 241.061 373.677 241.417C373.04 241.774 372.342 241.956 371.568 241.956C370.916 241.956 370.362 241.873 369.899 241.691C369.444 241.516 369.072 241.266 368.784 240.939C368.495 240.613 368.29 240.219 368.154 239.748C368.025 239.278 367.949 238.747 367.949 238.147V231.615H369.208V238.162C369.231 239.073 369.451 239.763 369.853 240.226C370.255 240.697 370.961 240.924 371.963 240.924C372.501 240.924 372.972 240.81 373.359 240.583C373.746 240.355 374.064 240.052 374.315 239.68C374.573 239.301 374.755 238.868 374.876 238.383C374.997 237.897 375.051 237.396 375.051 236.888V231.607H376.325V241.668H375.164" fill="#056333"/>
<path d="M348.829 15.6069C348.829 15.6069 328.875 27.3367 303.503 52.071C278.792 76.1528 249.186 112.64 228.8 159.02C225.249 167.101 232.54 166.456 232.54 166.456H271.645C271.645 166.456 274.201 146.16 285.127 117.154C296.068 88.1482 315.354 50.4398 348.829 15.6069Z" fill="#056333"/>
<path d="M376.029 174.893C376.029 174.893 369.095 158.398 356.841 138.816C344.588 119.233 327.024 96.57 305.749 84.2484C305.749 84.2484 315.734 97.268 325.825 115.121C335.939 132.958 346.181 155.629 346.591 170.712C346.591 170.712 346.705 174.885 350.984 174.885H376.029" fill="#8DC63F"/>
<path d="M307.327 183.899C306.629 183.459 305.901 183.087 305.165 182.799C304.414 182.51 303.663 182.305 302.881 182.184C302.1 182.063 301.227 181.972 300.256 181.903C299.292 181.843 298.223 181.812 297.077 181.812H291.394C291.394 181.812 286.698 181.812 286.698 186.403V221.152H289.384C289.384 221.152 292.062 221.152 292.062 217.912V205.507H295.112C295.112 205.507 298.17 205.507 301.091 209.088L310.924 221.144H314.399C314.399 221.144 317.874 221.144 314.907 217.586L303.541 204.028C304.839 203.55 305.992 202.965 307.001 202.245C308.025 201.524 308.905 200.689 309.657 199.711C310.4 198.747 310.962 197.654 311.333 196.448C311.713 195.242 311.895 193.922 311.895 192.48C311.895 191.448 311.796 190.5 311.584 189.642C311.379 188.777 311.075 188.003 310.666 187.305C310.256 186.6 309.77 185.978 309.209 185.401C308.663 184.847 308.025 184.346 307.327 183.899ZM306.303 192.882C306.303 193.572 306.25 194.21 306.159 194.809C306.068 195.409 305.931 195.962 305.742 196.478C305.552 196.979 305.324 197.465 305.036 197.897C304.748 198.337 304.406 198.747 304.019 199.119C303.594 199.528 303.109 199.877 302.593 200.151C302.069 200.424 301.5 200.629 300.886 200.758C300.279 200.894 299.626 200.985 298.943 201.061C298.253 201.122 297.525 201.152 296.758 201.152H294.399C294.399 201.152 292.047 201.152 292.047 197.912V186.304H297.343C298.086 186.304 298.777 186.327 299.406 186.387C300.036 186.433 300.597 186.516 301.106 186.615C301.607 186.714 302.077 186.858 302.525 187.025C302.957 187.199 303.374 187.412 303.754 187.654C304.194 187.935 304.558 188.254 304.877 188.626C305.203 188.982 305.468 189.392 305.666 189.832C305.878 190.28 306.03 190.75 306.136 191.258C306.25 191.774 306.303 192.313 306.303 192.882ZM262.745 199.308V199.096C263.625 198.679 264.414 198.193 265.105 197.616C265.795 197.047 266.394 196.395 266.888 195.667C267.388 194.923 267.76 194.157 268.018 193.322C268.268 192.495 268.397 191.615 268.397 190.689C268.397 189.862 268.314 189.081 268.147 188.368C267.972 187.654 267.737 186.987 267.396 186.372C267.062 185.758 266.63 185.204 266.106 184.711C265.583 184.21 264.96 183.777 264.232 183.398C263.572 183.049 262.912 182.776 262.214 182.556C261.531 182.336 260.825 182.177 260.112 182.085C259.399 181.994 258.496 181.926 257.419 181.881C256.349 181.835 255.097 181.812 253.655 181.812H247.677C247.677 181.812 242.988 181.812 242.988 186.403V221.152H254.528C255.894 221.152 257.138 221.091 258.261 220.962C259.376 220.849 260.37 220.659 261.235 220.416C262.1 220.181 262.935 219.855 263.754 219.445C264.566 219.028 265.34 218.527 266.098 217.95C266.743 217.472 267.32 216.918 267.821 216.296C268.329 215.674 268.777 214.999 269.156 214.248C269.528 213.504 269.816 212.7 270.013 211.827C270.203 210.97 270.294 210.052 270.294 209.066C270.294 207.814 270.127 206.653 269.793 205.598C269.467 204.559 268.974 203.61 268.314 202.768C267.661 201.926 266.865 201.213 265.939 200.636C264.998 200.075 263.944 199.627 262.745 199.308ZM262.305 194.498C262.145 194.915 261.91 195.28 261.622 195.613C261.334 195.962 260.985 196.251 260.583 196.501C260.158 196.767 259.748 196.979 259.331 197.161C258.921 197.336 258.511 197.465 258.117 197.548C257.722 197.632 257.214 197.692 256.599 197.738C255.977 197.776 255.249 197.799 254.414 197.799H248.329V186.281H253.473C254.414 186.281 255.249 186.296 255.977 186.319C256.713 186.349 257.343 186.395 257.881 186.441C258.413 186.501 258.921 186.592 259.399 186.736C259.885 186.888 260.34 187.078 260.772 187.321C261.129 187.518 261.44 187.761 261.705 188.034C261.963 188.315 262.176 188.618 262.335 188.967C262.502 189.316 262.623 189.688 262.707 190.105C262.783 190.515 262.828 190.962 262.828 191.433C262.828 192.047 262.775 192.601 262.699 193.117C262.601 193.618 262.479 194.081 262.305 194.498ZM264.065 205.636C264.285 206.114 264.452 206.66 264.558 207.267C264.664 207.874 264.718 208.55 264.718 209.293C264.718 209.984 264.657 210.613 264.543 211.182C264.429 211.751 264.247 212.245 264.02 212.685C263.784 213.125 263.481 213.534 263.117 213.921C262.745 214.308 262.305 214.68 261.804 215.022C261.288 215.371 260.742 215.651 260.142 215.871C259.551 216.106 258.906 216.258 258.23 216.364C257.555 216.478 256.759 216.554 255.825 216.607C254.915 216.66 253.853 216.683 252.684 216.683H250.514C250.514 216.683 248.337 216.683 248.337 213.443V202.154H254.422C255.34 202.154 256.159 202.169 256.865 202.207C257.57 202.23 258.185 202.283 258.686 202.343C259.186 202.404 259.672 202.51 260.127 202.647C260.598 202.783 261.038 202.973 261.463 203.185C262.115 203.527 262.661 203.891 263.101 204.301C263.526 204.718 263.853 205.151 264.065 205.636ZM341.318 181.82H336.728C336.728 181.82 332.153 181.82 332.153 186.41V221.16H341.424C343.055 221.16 344.535 221.106 345.886 220.993C347.221 220.886 348.42 220.727 349.467 220.522C350.521 220.31 351.561 219.999 352.593 219.574C353.624 219.157 354.656 218.625 355.681 218.003C356.933 217.199 358.055 216.22 359.057 215.105C360.051 213.975 360.923 212.692 361.667 211.243C362.41 209.809 362.972 208.276 363.336 206.653C363.708 205.029 363.898 203.33 363.898 201.531C363.898 199.612 363.708 197.829 363.359 196.167C363.01 194.513 362.471 192.996 361.758 191.607C361.03 190.219 360.18 188.967 359.178 187.859C358.177 186.752 357.016 185.773 355.719 184.938C354.967 184.453 354.125 184.013 353.207 183.633C352.289 183.261 351.288 182.928 350.218 182.654C349.14 182.381 347.851 182.169 346.371 182.032C344.899 181.888 343.215 181.82 341.318 181.82ZM337.509 186.304H341.591C342.798 186.304 343.92 186.357 344.914 186.441C345.931 186.539 346.842 186.676 347.646 186.858C348.465 187.047 349.247 187.298 350.005 187.594C350.772 187.897 351.508 188.261 352.221 188.686C353.222 189.278 354.11 189.999 354.876 190.826C355.643 191.668 356.272 192.616 356.796 193.686C357.312 194.756 357.691 195.94 357.949 197.23C358.207 198.519 358.336 199.931 358.336 201.44C358.336 202.981 358.215 204.377 357.987 205.667C357.752 206.934 357.403 208.094 356.925 209.119C356.462 210.143 355.885 211.069 355.187 211.896C354.482 212.715 353.678 213.428 352.737 214.05C352.001 214.551 351.227 214.968 350.407 215.317C349.596 215.659 348.731 215.932 347.835 216.114C346.948 216.289 345.984 216.448 344.937 216.531C343.898 216.622 342.782 216.668 341.591 216.668H339.55C338.905 216.668 337.221 216.554 337.509 212.078V186.304Z" fill="#056333"/>
<path d="M210.97 180.143H210.333V241.941H210.97V180.143Z" fill="#8DC63F"/>
<path d="M217.138 180.143H216.501V241.941H217.138V180.143Z" fill="#056333"/>
</svg>
